<?xml version="1.0" encoding="utf-8"?>
<?xml-stylesheet type="text/xsl" href="rss1.xsl"?>
<rss version="2.0" xmlns:atom="http://www.w3.org/2005/Atom" xmlns:content="http://purl.org/rss/1.0/modules/content/" xmlns:dc="http://purl.org/dc/elements/1.1/" xmlns:media="http://search.yahoo.com/mrss/">
<channel>
 <title>Getty</title>
 <link>http://www.gettyimg.com/</link>
 <atom:link href="http://www.gettyimg.com/" rel="self" type="application/rss+xml" />

 
                <item>
                <title><![CDATA[【PRORES HD】Taylor Swift – I Can See You (Taylor’s Version) (From The Vault) MASTER ProRes 1080p LPCM2.0]]></title>
                <link><![CDATA[https://sharemania.us/threads/taylor-swift-%E2%80%93-i-can-see-you-taylor%E2%80%99s-version-from-the-vault-master-prores-1080p-lpcm2-0.233232/]]></link>
                <description><![CDATA[<article>
<blockquote class="messageText SelectQuoteContainer ugc baseHtml">
<img src="https://hips.hearstapps.com/hmg-prod/images/presley-cash-taylor-swift-joey-king-and-taylor-lautner-news-photo-1689019891.jpg?crop=1xw:0.84333xh;center,top" class="bbCodeImage LbImage" alt="[​IMG]" data-url="https://hips.hearstapps.com/hmg-prod/images/presley-cash-taylor-swift-joey-king-and-taylor-lautner-news-photo-1689019891.jpg?crop=1xw:0.84333xh;center,top" style=""><br>
<img src="https://i.postimg.cc/9FV079g3/Taylor-Swift-I-Can-See-You-Taylor-s-Version-From-The-Vault-MASTER-Pro-Res-1080p-LPCM2-0-mov.jpg" class="bbCodeImage LbImage" alt="[​IMG]" data-url="https://i.postimg.cc/9FV079g3/Taylor-Swift-I-Can-See-You-Taylor-s-Version-From-The-Vault-MASTER-Pro-Res-1080p-LPCM2-0-mov.jpg" style=""> <br>
<div class="ToggleTriggerAnchor bbCodeSpoilerContainer">
<button type="button" class="button bbCodeSpoilerButton ToggleTrigger Tooltip JsOnly" data-target="> .SpoilerTarget"><span>Spoiler: <span class="SpoilerTitle">Media Info</span></span></button>
<div class="SpoilerTarget bbCodeSpoilerText">General<br>
Complete name : Taylor Swift – I Can See You (Taylor’s Version) (From The Vault) MASTER ProRes 1080p LPCM2.0.mov<br>
Format : MPEG-4<br>
Format profile : QuickTime<br>
Codec ID : qt 2005.03 (qt )<br>
File size : 6.12 GiB<br>
Duration : 5 min 6 s<br>
Overall bit rate mode : Variable<br>
Overall bit rate : 172 Mb/s<br>
Frame rate : 23.976 FPS<br>
Encoded date : 2023-07-08 05:19:03 UTC<br>
Tagged date : 2023-07-08 05:19:08 UTC<br>
Writing library : Apple QuickTime<br>
TIM : 00:00:00:00<br>
TSC : 24000<br>
TSZ : 1001<br>
<br>
Video<br>
ID : 1<br>
Format : ProRes<br>
Format version : Version 0<br>
Format profile : 422 HQ<br>
Codec ID : apch<br>
Duration : 5 min 6 s<br>
Bit rate mode : Variable<br>
Bit rate : 169 Mb/s<br>
Width : 1 920 pixels<br>
Height : 1 080 pixels<br>
Display aspect ratio : 16:9<br>
Frame rate mode : Constant<br>
Frame rate : 23.976 (24000/1001) FPS<br>
Color space : YUV<br>
Chroma subsampling : 4:2:2<br>
Scan type : Progressive<br>
Bits/(Pixel*Frame) : 3.404<br>
Stream size : 6.04 GiB (99%)<br>
Writing library : aut0<br>
Language : English<br>
Encoded date : 2023-07-08 05:19:03 UTC<br>
Tagged date : 2023-07-08 05:19:03 UTC<br>
Color primaries : BT.709<br>
Transfer characteristics : BT.709<br>
Matrix coefficients : BT.709<br>
<br>
Audio<br>
ID : 2<br>
Format : PCM<br>
Format settings : Little / Signed<br>
Codec ID : in24<br>
Duration : 5 min 6 s<br>
Bit rate mode : Constant<br>
Bit rate : 2 304 kb/s<br>
Channel(s) : 2 channels<br>
Channel layout : L R<br>
Sampling rate : 48.0 kHz<br>
Bit depth : 24 bits<br>
Stream size : 84.2 MiB (1%)<br>
Language : English<br>
Encoded date : 2023-07-08 05:19:03 UTC<br>
Tagged date : 2023-07-08 05:19:03 UTC<br>
<br>
Other<br>
ID : 3<br>
Type : Time code<br>
Format : QuickTime TC<br>
Duration : 5 min 6 s<br>
Frame rate : 23.976 (24000/1001) FPS<br>
Time code of first frame : 00:00:00:00<br>
Time code of last frame : 00:05:06:02<br>
Time code, stripped : Yes<br>
Language : English<br>
Encoded date : 2023-07-08 05:19:03 UTC<br>
Tagged date : 2023-07-08 05:19:03 UTC</div>
</div>
<div class="bbCodeBlock bbCodeVfcHH HiddenContent">
<div class="attribution type">Hidden Content:</div>
<blockquote>You must either reply or click 'Like' to see the hidden information contained here.</blockquote>
</div>
<div class="messageTextEndMarker">&nbsp;</div>
</blockquote>
</article>]]></description>
                <author><![CDATA[szymek04sawicki]]></author>
                </item>

                
                <item>
                <title><![CDATA[【Singles (lossless)】WAV - Britney Spears - Tik Tik Boom (Main Track, Instrumental) [WAV 16bit / 44.1kHz]]]></title>
                <link><![CDATA[https://sharemania.us/threads/britney-spears-tik-tik-boom-main-track-instrumental-wav-16bit-44-1khz.233231/]]></link>
                <description><![CDATA[<article>
<blockquote class="messageText SelectQuoteContainer ugc baseHtml">
sdasdas
<div class="messageTextEndMarker">&nbsp;</div>
</blockquote>
</article>]]></description>
                <author><![CDATA[Britneyssbloverr]]></author>
                </item>

                </channel></rss>